<?xml version="1.0" encoding="utf-8"?>
<!-- Generator: Adobe Illustrator 17.0.0, SVG Export Plug-In . SVG Version: 6.00 Build 0)  -->
<!DOCTYPE svg PUBLIC "-//W3C//DTD SVG 1.1//EN" "http://www.w3.org/Graphics/SVG/1.1/DTD/svg11.dtd">
<svg version="1.1" id="Layer_1" xmlns="http://www.w3.org/2000/svg" xmlns:xlink="http://www.w3.org/1999/xlink" x="0px" y="0px"
	 width="50px" height="50px" viewBox="0 0 50 50" enable-background="new 0 0 50 50" xml:space="preserve">
<path fill="#444444" d="M24.906,1c-0.109,0.016-0.215,0.047-0.312,0.094l-19.781,8.5C4.406,9.664,4.086,9.973,4,10.375
	c0,0.02,0,0.043,0,0.062c-0.039,0.176-0.027,0.359,0.031,0.531l1.25,19.469c0.016,0.297,0.164,0.574,0.406,0.75l7.406,5.375
	c-0.121,0.59-0.219,1.18-0.219,1.812C12.875,44.309,18.398,49,25,49s12.094-4.691,12.094-10.625c0-0.617-0.102-1.203-0.219-1.781
	l7.438-5.406c0.242-0.176,0.391-0.453,0.406-0.75L46,10.75c0.004-0.062,0.004-0.125,0-0.188c0-0.012,0-0.02,0-0.031
	c0-0.02,0-0.043,0-0.062c0-0.012,0-0.02,0-0.031c-0.035-0.188-0.121-0.359-0.25-0.5c0-0.012,0-0.02,0-0.031
	c-0.098-0.094-0.215-0.172-0.344-0.219l-20-8.594C25.25,1.02,25.078,0.988,24.906,1z M25,3.094l17.781,7.625L25,20.844L7.219,10.719
	L25,3.094z M24.938,5.375c-0.043,0.008-0.086,0.02-0.125,0.031c-0.074,0.012-0.148,0.035-0.219,0.062l-10.781,4.656
	c-0.344,0.152-0.574,0.484-0.594,0.863c-0.02,0.375,0.172,0.73,0.5,0.918L24.5,18.062c0.309,0.18,0.691,0.18,1,0l10.781-6.156
	c0.328-0.188,0.52-0.543,0.5-0.918c-0.02-0.379-0.25-0.711-0.594-0.863L25.406,5.469c-0.117-0.055-0.246-0.086-0.375-0.094
	C25,5.375,24.969,5.375,24.938,5.375z M25,7.5l8.562,3.656L28.5,14.031l-2.125-1.25l1-1.906c0.102-0.18,0.082-0.402-0.051-0.562
	s-0.348-0.223-0.543-0.156l-1.469,0.5l0.906-1.062c0.141-0.176,0.145-0.422,0.016-0.605c-0.133-0.18-0.367-0.254-0.578-0.176
	l-3.188,1.312L23.5,9.156c0.109-0.109,0.16-0.262,0.145-0.414c-0.02-0.152-0.105-0.289-0.238-0.367L23.219,8.25L25,7.5z
	 M22.156,8.719l0.188,0.125l-2.531,2.406c-0.211,0.156-0.266,0.445-0.125,0.668c0.141,0.219,0.426,0.297,0.656,0.176l3.781-1.562
	l-0.781,0.906c-0.18,0.168-0.207,0.445-0.066,0.648s0.406,0.273,0.629,0.164l2-0.719L25.25,12.75
	c-0.121,0.234-0.039,0.52,0.188,0.656l2.062,1.188L25,16.031l-8.562-4.875L22.156,8.719z M6.094,12.375L24,22.562v19.469
	L7.25,29.844L6.094,12.375z M43.906,12.375L42.75,29.844L26,42.031V22.562L43.906,12.375z M9.188,16.688
	c-0.527,0.066-0.914,0.531-0.875,1.062L9.094,28.5c0.016,0.297,0.164,0.574,0.406,0.75l10.594,7.562
	c0.305,0.227,0.711,0.258,1.047,0.086c0.34-0.172,0.551-0.52,0.547-0.898l-0.25-11.438c0-0.344-0.18-0.66-0.469-0.844L9.844,16.812
	C9.645,16.695,9.414,16.652,9.188,16.688z M39.938,16.688c-0.133,0.027-0.262,0.078-0.375,0.156l-11,6.688
	c-0.289,0.184-0.469,0.5-0.469,0.844l-0.219,11.312c-0.016,0.383,0.191,0.742,0.531,0.922s0.754,0.152,1.062-0.078l10.344-7.25
	c0.254-0.172,0.414-0.445,0.438-0.75l0.812-10.75c0.027-0.285-0.07-0.57-0.27-0.781c-0.195-0.207-0.473-0.324-0.762-0.312
	C40,16.688,39.969,16.688,39.938,16.688z M10.469,19.562l8.969,5.594l0.219,8.875l-8.594-6.125L10.469,19.562z M38.906,19.594
	l-0.625,8.344l-8.375,5.812l0.156-8.781L38.906,19.594z M14.906,37.906l9.5,6.906c0.352,0.262,0.836,0.262,1.188,0l9.469-6.906
	c0.012,0.156,0.031,0.312,0.031,0.469C35.094,43.062,30.664,47,25,47s-10.125-3.938-10.125-8.625
	C14.875,38.215,14.895,38.062,14.906,37.906z"/>
</svg>
